<svg class="icon" viewBox="0 0 1778 1024" xmlns="http://www.w3.org/2000/svg" width="347.266" height="200"><defs><style/></defs><path d="M506.03 873.236l-3.733 14.18c34.333 8.21 41.796 16.42 43.289 19.406.746 1.493.746 2.24 0 4.478-2.24 5.225-17.913 12.688-38.81 11.942-9.703 0-32.094-2.985-37.318-21.644l-14.181 4.478c5.97 19.405 24.63 31.347 51.499 32.093h2.985c20.898 0 44.781-7.463 50.006-21.644 2.239-5.971 2.239-11.196-.747-16.42-5.97-10.449-22.39-19.405-52.99-26.869zm238.833-44.781c-17.166 0-102.997 2.985-102.997 54.484 0 32.093 34.332 51.498 102.25 55.976l.747-14.927c-40.303-2.985-88.816-11.941-88.816-41.05 0-38.81 84.338-39.556 88.07-39.556 23.137 0 79.113 15.673 79.113 40.303h14.927c.747-38.81-66.425-55.23-93.294-55.23zm874.729 15.673c-4.478-10.449-11.942-17.166-23.137-20.151-33.586-10.45-70.904 11.195-110.46 63.44-48.514-24.63-100.759-44.781-157.482-61.948 22.39-14.927 42.542-32.093 61.948-51.498l-10.45-10.45c-64.932 64.934-147.778 105.983-246.297 120.91l2.24 14.928c65.679-10.45 124.64-31.347 176.886-63.44 140.315 39.556 255.253 102.996 342.577 188.081l10.449-10.449c-22.39-21.644-46.274-41.796-71.65-60.455 26.122-51.498 34.332-87.323 25.376-108.968zm-27.615-5.97c6.717 2.239 11.195 5.97 14.18 11.941 5.225 11.942 4.479 38.064-24.63 94.787-25.375-17.912-52.99-35.078-82.098-50.006 34.332-46.274 65.679-64.932 92.548-56.723z"/><path d="M1172.525 725.458l-14.927-2.986c-4.478 21.645-19.406 43.289-43.289 64.933l2.985-14.18c-124.64-26.123-299.288-26.123-518.717 0-23.137 2.985-46.274 6.717-69.41 10.448l-6.718-32.84c13.434-2.238 36.571-8.955 36.571-28.36 0-11.942-4.478-39.558-14.18-81.353l-14.927 2.985c11.195 50.752 14.18 70.157 14.18 78.367 0 7.464-13.434 11.942-24.63 14.181l-26.868-133.598-14.927 2.986 18.659 91.055c-8.957 2.986-17.913 4.478-23.137-.746-3.732-3.732-10.45-16.42-17.913-63.44l-14.927 2.239c8.21 52.245 16.42 65.679 22.39 70.903 3.732 3.732 10.45 7.464 20.152 7.464 4.478 0 10.45-.746 16.42-2.985l14.927 73.889c-24.63 4.478-49.26 9.702-73.143 15.673-1.493-38.064-11.941-88.07-28.361-132.851-11.942-32.84-37.318-90.31-72.397-114.192-16.42-10.45-33.586-12.688-50.006-5.971-51.498 22.39-70.157 80.606-58.215 176.886-8.957-2.24-17.913-.746-26.87 3.732-37.317 18.659-43.288 73.143-18.658 164.944-61.201 30.601-120.163 65.68-175.394 106.73l8.957 11.941c167.93-123.149 363.475-198.53 580.664-225.4 217.936-26.122 390.344-26.122 514.24 0-21.645 19.406-50.753 38.065-87.324 55.977l6.717 13.435c82.1-40.304 127.627-82.846 138.076-129.866zM296.303 562.006c11.196-5.225 23.137-3.732 35.825 4.478 50.752 33.586 92.548 164.945 94.787 238.087-40.303 10.45-80.606 23.137-119.416 37.318-19.406-59.708-39.557-96.28-61.948-110.46h1.493c-12.688-94.041 3.732-149.272 49.26-169.423zm-84.338 180.618c7.464-3.732 14.18-4.478 20.898-1.493 14.18 5.971 36.571 29.108 61.201 105.983a1047.83 1047.83 0 0 0-94.04 40.303c-21.645-81.353-17.167-129.866 11.941-144.793zm1082.216 39.557l-9.703-11.196c-26.122 22.391-69.41 44.035-129.866 64.933l5.225 14.181c61.2-22.39 106.729-44.781 134.344-67.918zm339.592-310.484c-2.24-23.137-7.464-44.782-17.167-64.933-23.137-48.513-105.236-142.554-253.76-153.003-155.243-10.449-217.936 47.02-244.059 97.773-2.985 5.224-5.224 10.449-7.463 14.927-99.266 7.463-156.735 32.84-174.648 76.128-6.717 14.927-3.731 33.586 6.718 52.991 13.434 23.884 35.825 46.274 64.933 66.426-5.971 38.064 25.376 73.889 95.533 108.221 88.816 43.289 247.79 82.846 370.939 82.846 18.659 0 35.825-.746 52.991-2.986 81.353-8.956 123.895-29.107 130.612-61.2 64.187-11.942 103.744-35.826 115.685-71.65 13.435-47.768-32.093-95.534-140.314-145.54zM1132.222 358.25c23.137-46.274 82.099-99.266 229.13-89.563 141.808 9.703 220.176 98.519 241.82 144.047 14.927 32.84 20.152 69.41 14.927 108.968-55.23 44.035-148.525 52.245-275.405 23.137-128.373-29.108-208.233-69.411-238.088-119.417 1.493-15.674 20.898-54.484 27.616-67.172zm393.329 376.91c-123.895 14.18-314.962-29.109-414.974-78.368-57.47-28.362-86.577-56.723-88.07-85.085 82.846 52.992 207.487 91.056 314.962 107.476 80.607 11.941 151.51 17.912 211.965 17.912 34.333 0 64.933-2.239 92.549-5.97-13.435 26.868-68.665 38.81-116.432 44.034zm232.863-122.403c-8.21 26.122-62.694 105.983-419.452 51.499-213.458-32.84-348.548-114.193-382.88-176.14-5.971-10.45-11.942-26.123-5.971-39.557 14.927-36.572 66.425-58.962 153.75-66.426-9.704 22.39-14.182 36.572-14.182 44.781v2.24l.747 1.492c30.6 55.23 114.192 98.52 248.536 129.12 50.752 11.195 96.28 17.166 137.33 17.166 65.679 0 117.177-14.927 153.749-45.528l2.239-1.492.746-2.986a325.504 325.504 0 0 0 2.24-38.064c93.294 44.781 135.09 85.83 123.148 123.895z"/><path d="M1026.24 425.423c-14.182 0-26.123 11.941-26.123 26.122s11.941 26.123 26.122 26.123 26.123-11.942 26.123-26.123-11.942-26.122-26.123-26.122zm0 37.318c-5.972 0-11.196-5.225-11.196-11.196s5.224-11.195 11.195-11.195 11.195 5.224 11.195 11.195-5.224 11.196-11.195 11.196zm156.734 67.172c-14.181 0-26.123 11.941-26.123 26.122s11.942 26.122 26.123 26.122 26.122-11.941 26.122-26.122-11.941-26.122-26.122-26.122zm0 37.317c-5.971 0-11.196-5.224-11.196-11.195s5.225-11.195 11.196-11.195 11.195 5.224 11.195 11.195-5.224 11.195-11.195 11.195zm261.224 22.391c-14.18 0-26.122 11.942-26.122 26.122s11.941 26.123 26.122 26.123 26.123-11.942 26.123-26.123-11.942-26.122-26.123-26.122zm0 37.318c-5.97 0-11.195-5.225-11.195-11.196s5.224-11.195 11.195-11.195 11.196 5.225 11.196 11.195-5.225 11.196-11.196 11.196zm253.761-59.709c-14.18 0-26.122 11.942-26.122 26.123s11.941 26.122 26.122 26.122 26.123-11.941 26.123-26.122-11.942-26.123-26.123-26.123zm0 37.318c-5.97 0-11.195-5.224-11.195-11.195s5.224-11.196 11.195-11.196 11.196 5.225 11.196 11.196-5.225 11.195-11.196 11.195z"/></svg>