<?xml version="1.0" standalone="no"?><!DOCTYPE svg PUBLIC "-//W3C//DTD SVG 1.1//EN" "http://www.w3.org/Graphics/SVG/1.1/DTD/svg11.dtd"><svg t="1603796691299" class="icon" viewBox="0 0 1047 1024" version="1.1" xmlns="http://www.w3.org/2000/svg" p-id="3012" xmlns:xlink="http://www.w3.org/1999/xlink" width="204.4921875" height="200"><defs><style type="text/css"></style></defs><path d="M949.194285 59.082642c-25.374019-24.583582-53.914787-36.475152-84.046434-36.475152-46.775843 0-80.874682 30.126644-90.384936 39.641902-13.482449 12.687009-387.72421 386.133331-387.72421 386.133331-3.171752 3.171752-4.752626 6.343505-6.343505 11.106136-10.305694 37.260586-61.048728 203.767578-61.844167 205.353454-2.376313 8.719818 0 17.444638 6.343504 23.788142 4.757628 4.752626 10.305694 7.133941 16.649199 7.133941 2.381316 0 4.757628 0 7.138944-0.790436 1.585876-0.795439 173.640933-56.296103 201.391265-64.225484 3.967192-0.795439 7.138944-3.171752 9.515257-5.553068 17.444638-17.439635 362.350192-356.001684 390.100523-384.547455 28.540768-29.336208 42.813654-60.258292 42.813653-91.970812 0-32.50796-15.063322-61.84917-43.609093-89.599502z m-38.851465 141.127971c-15.858762 15.858762-138.751658 137.961221-365.516941 360.764315l-17.444637 17.444638c-26.164455 7.929381-88.008623 27.750332-135.584909 43.609093 15.068325-49.952598 33.303399-110.210889 41.232781-138.75666 48.366722-48.366722 369.484133-367.898257 381.375703-380.585267 2.376313-2.376313 23.788142-22.992703 50.743034-22.992703 15.068325 0 30.131647 7.133941 44.404533 21.41183 17.439635 16.649198 26.954892 33.298397 26.954892 48.361719 0.795439 14.272885-7.929381 31.717523-26.164456 50.743035z" p-id="3013"></path><path d="M889.72643 485.648311c-17.439635 0-31.717523 14.272885-31.717523 30.927087v338.557046c0 34.093836-19.815948 68.983112-53.909784 68.983112H153.93492c-34.889276 0-72.945301-34.889276-72.945301-68.983112V198.624736c0-33.298397 38.056025-54.705224 72.940298-54.705223h352.834934c17.444638 0 31.717523-14.272885 31.717524-30.922084 0-17.444638-14.272885-30.922084-31.717524-30.922084H153.939922c-34.093836 0-66.601796 11.09613-91.975815 30.126644C33.413334 134.404256 16.764135 165.32634 16.764135 198.624736v656.512711c0 32.502957 15.858762 65.806357 42.023217 91.970812 26.164455 25.374019 61.844168 40.437341 95.147568 40.437341H803.298681c34.889276 0 65.81136-15.063322 88.008623-42.813654 19.825953-24.583582 30.131647-55.505666 30.131647-88.804062v-339.352486c0-16.654201-14.272885-30.927087-31.717523-30.927087z" p-id="3014"></path></svg>