<svg class="icon" viewBox="0 0 1047 1024" xmlns="http://www.w3.org/2000/svg" width="204.492" height="200"><defs><style/></defs><path d="M949.194 59.083c-25.374-24.584-53.915-36.476-84.046-36.476-46.776 0-80.875 30.127-90.385 39.642-13.483 12.687-387.724 386.134-387.724 386.134-3.172 3.171-4.753 6.343-6.344 11.106-10.305 37.26-61.049 203.767-61.844 205.353-2.376 8.72 0 17.445 6.344 23.788 4.757 4.753 10.305 7.134 16.649 7.134 2.381 0 4.757 0 7.139-.79 1.586-.795 173.64-56.296 201.39-64.226 3.968-.795 7.14-3.171 9.516-5.553 17.445-17.44 362.35-356.001 390.1-384.547 28.541-29.336 42.814-60.258 42.814-91.97 0-32.509-15.063-61.85-43.609-89.6zM910.343 200.21c-15.859 15.858-138.752 137.96-365.517 360.764L527.38 578.42c-26.164 7.929-88.008 27.75-135.585 43.609 15.069-49.953 33.304-110.211 41.233-138.757 48.367-48.367 369.484-367.898 381.376-380.585 2.376-2.377 23.788-22.993 50.743-22.993 15.068 0 30.131 7.134 44.404 21.412 17.44 16.65 26.955 33.298 26.955 48.362.796 14.272-7.93 31.717-26.164 50.743z"/><path d="M889.726 485.648c-17.44 0-31.717 14.273-31.717 30.927v338.557c0 34.094-19.816 68.984-53.91 68.984H153.935c-34.89 0-72.945-34.89-72.945-68.984V198.625c0-33.299 38.056-54.705 72.94-54.705h352.835c17.444 0 31.717-14.273 31.717-30.923 0-17.444-14.273-30.922-31.717-30.922H153.94c-34.094 0-66.602 11.096-91.976 30.127-28.55 22.202-45.2 53.124-45.2 86.423v656.512c0 32.503 15.859 65.807 42.023 91.971 26.165 25.374 61.845 40.438 95.148 40.438h649.364c34.889 0 65.811-15.064 88.008-42.814 19.826-24.584 30.132-55.506 30.132-88.804V516.575c0-16.654-14.273-30.927-31.718-30.927z"/></svg>