<svg class="icon" viewBox="0 0 1024 1024" xmlns="http://www.w3.org/2000/svg" width="200" height="200"><defs><style/></defs><path d="M544 64C279.04 64 64 279.04 64 544s215.04 480 480 480c264.96 0 480-215.04 480-480S808.96 64 544 64zm215.04 694.4c-12.8 12.8-33.28 12.8-45.44 0L542.08 585.6 368 757.76c-12.8 12.8-33.28 12.8-46.08 0-12.8-12.8-12.8-33.28 0-45.44l174.72-172.8L331.52 374.4c-12.8-12.8-12.8-33.28 0-45.44 12.8-12.8 33.28-12.8 45.44 0l165.12 165.76 167.68-165.76c12.8-12.8 33.28-12.8 46.08 0 12.8 12.8 12.8 33.28 0 45.44L587.52 540.8 758.4 712.96c12.8 12.16 12.8 32.64.64 45.44z"/></svg>