<?xml version="1.0" standalone="no"?><!DOCTYPE svg PUBLIC "-//W3C//DTD SVG 1.1//EN" "http://www.w3.org/Graphics/SVG/1.1/DTD/svg11.dtd"><svg t="1603796671046" class="icon" viewBox="0 0 1024 1024" version="1.1" xmlns="http://www.w3.org/2000/svg" p-id="2435" xmlns:xlink="http://www.w3.org/1999/xlink" width="200" height="200"><defs><style type="text/css"></style></defs><path d="M864 128H160c-17.6 0-32 14.4-32 32v704c0 17.6 14.4 32 32 32h704c17.6 0 32-14.4 32-32V160c0-17.6-14.4-32-32-32zM704 320h64v384h-64V320zM576 512h64v192h-64V512z m-128-64h64v256h-64V448zM320 576h64v128h-64V576z m512 256H192V192h64v576h576v64z" p-id="2436"></path></svg>